<?xml version="1.0" encoding="iso-8859-1"?>
<!-- Generator: Adobe Illustrator 19.0.0, SVG Export Plug-In . SVG Version: 6.00 Build 0)  -->
<svg version="1.1" id="Capa_1" xmlns="http://www.w3.org/2000/svg" xmlns:xlink="http://www.w3.org/1999/xlink" x="0px" y="0px"
	 viewBox="0 0 480 480" style="enable-background:new 0 0 480 480;" xml:space="preserve">
<g>
	<g>
		<path d="M184,40c-53.019,0-96,42.981-96,96s42.981,96,96,96c52.996-0.057,95.943-43.004,96-96C280,82.981,237.019,40,184,40z
			 M184,56c38.771,0.065,71.925,27.898,78.704,66.072C243.2,112.36,205.952,96,176,96c-27.488,0-54.336,13.64-70.288,23.592
			C113.518,82.568,146.162,56.051,184,56z M184,216c-42.643-0.053-77.748-33.543-79.808-76.136C114.008,132.8,145.344,112,176,112
			c31.352,0,74.352,21.496,87.768,28.624C261.32,182.902,226.349,215.948,184,216z"/>
	</g>
</g>
<g>
	<g>
		<path d="M240,280h-48c-13.255,0-24,10.745-24,24v24c0,13.255,10.745,24,24,24h48c13.255,0,24-10.745,24-24v-24
			C264,290.745,253.255,280,240,280z M248,328c0,4.418-3.582,8-8,8h-48c-4.418,0-8-3.582-8-8v-24c0-4.418,3.582-8,8-8h48
			c4.418,0,8,3.582,8,8V328z"/>
	</g>
</g>
<g>
	<g>
		<path d="M480,64V0h-16v64c-0.06,45.47-34.722,83.421-80,87.592v-16.064c36.414-4.108,63.95-34.883,64-71.528V0h-16v64
			c-0.053,27.805-20.483,51.367-48,55.36V104c0-13.255-10.745-24-24-24h-20.72C317.6,35.88,269.6,8,208,8C123.2,8,64,60.64,64,136
			c-0.795,39.195,17.57,76.315,49.208,99.464l-69.552,14.208c-18.363,3.324-31.666,19.387-31.512,38.048
			c0.168,23.92,16.136,37.6,44.264,37.6l77.04-4.312c2.765,9.592,6.572,18.852,11.352,27.616l23.728,43.504
			c6.001,10.996,13.544,21.076,22.4,29.936l41.544,41.536c17.871,17.823,45.445,21.516,67.376,9.024l20.92-12
			c14.648,8.044,32.131,9.098,47.64,2.872l43.88-17.552c4.818,13.874,19.97,21.215,33.844,16.398
			c10.635-3.693,17.793-13.683,17.868-24.942V384c0-8.837-7.163-16-16-16h-32v0.2c-0.638-0.08-1.282-0.08-1.92,0l-43.616,10.784
			l-55.648-55.664c-2.809-2.806-5.146-6.048-6.92-9.6c-0.288-0.576-0.504-1.184-0.76-1.776H360c13.255,0,24-10.745,24-24V265.48
			l32.488-7.696c20.867-3.806,34.698-23.808,30.892-44.676c-3.806-20.867-23.808-34.698-44.676-30.892L384,185.6v-18.008
			C438.121,163.385,479.917,118.284,480,64z M424,384h24v53.4c-0.009,5.854-4.762,10.593-10.616,10.584
			c-4.547-0.007-8.584-2.913-10.032-7.224L424,430.696V384z M352,136c0.065-13.57-1.995-27.067-6.104-40H360c4.418,0,8,3.582,8,8
			v84.544l-29.696,5.416C347.458,176.02,352.155,156.14,352,136z M338.736,210.144L314.088,265.6L304,268v-33.496
			c8.446-6.363,16.023-13.805,22.536-22.136L338.736,210.144z M56,309.368c-24.8,0-27.8-12.416-27.856-21.752
			c-0.081-10.949,7.766-20.351,18.552-22.232l37.248-7.608l24.328,48.664L56,309.368z M125.68,305.464l-25.504-51L128,248.8v34.136
			c0.022,7.477,0.656,14.939,1.896,22.312L125.68,305.464z M80,136c0-65.944,52.632-112,128-112s128,46.056,128,112
			s-52.632,112-128,112S80,201.944,80,136z M378.344,409.52l11.312-11.312l-5.976-5.976l24.32-6.016v44.232l-45.6,18.232
			c-14.859,5.95-31.834,2.469-43.152-8.848l-57.6-57.6l-11.304,11.288l56.592,56.592l-15.08,8.616
			c-15.654,8.93-35.344,6.312-48.12-6.4l-41.544-41.536c-7.769-7.785-14.39-16.636-19.664-26.288l-23.72-43.544
			c-9.705-17.81-14.796-37.766-14.808-58.048v-30.616c20.4,7.916,42.118,11.888,64,11.704c27.858,0.443,55.377-6.162,80-19.2v52.44
			c-0.003,14.033,5.575,27.491,15.504,37.408L378.344,409.52z M368,288c0,4.418-3.582,8-8,8h-56v-11.568l64-15.2V288z M405.6,197.96
			c12.197-2.105,23.791,6.075,25.896,18.272c2.105,12.197-6.075,23.791-18.272,25.896l-79.56,18.832l24.128-54.288L405.6,197.96z"/>
	</g>
</g>
<g>
	<g>
		<rect x="296" y="120" width="16" height="40"/>
	</g>
</g>
<g>
	<g>
		<rect x="16" width="16" height="16"/>
	</g>
</g>
<g>
	<g>
		<rect y="16" width="16" height="16"/>
	</g>
</g>
<g>
	<g>
		<rect x="32" y="16" width="16" height="16"/>
	</g>
</g>
<g>
	<g>
		<rect x="16" y="32" width="16" height="16"/>
	</g>
</g>
<g>
	<g>
		<rect y="152" width="16" height="16"/>
	</g>
</g>
<g>
	<g>
		<rect x="448" y="280" width="16" height="16"/>
	</g>
</g>
<g>
	<g>
		<rect x="432" y="296" width="16" height="16"/>
	</g>
</g>
<g>
	<g>
		<rect x="464" y="296" width="16" height="16"/>
	</g>
</g>
<g>
	<g>
		<rect x="448" y="312" width="16" height="16"/>
	</g>
</g>
<g>
	<g>
		<rect x="96" y="376" width="16" height="16"/>
	</g>
</g>
<g>
	<g>
		<rect x="80" y="392" width="16" height="16"/>
	</g>
</g>
<g>
	<g>
		<rect x="112" y="392" width="16" height="16"/>
	</g>
</g>
<g>
	<g>
		<rect x="96" y="408" width="16" height="16"/>
	</g>
</g>
<g>
	<g>
		<rect x="32" y="440" width="16" height="16"/>
	</g>
</g>
<g>
	<g>
		<rect x="152" y="464" width="16" height="16"/>
	</g>
</g>
<g>
	<g>
		<rect y="336" width="16" height="16"/>
	</g>
</g>
<g>
</g>
<g>
</g>
<g>
</g>
<g>
</g>
<g>
</g>
<g>
</g>
<g>
</g>
<g>
</g>
<g>
</g>
<g>
</g>
<g>
</g>
<g>
</g>
<g>
</g>
<g>
</g>
<g>
</g>
</svg>
