<svg id="Icons" height="512" viewBox="0 0 74 74" width="512" xmlns="http://www.w3.org/2000/svg"><path d="m33.278 59.572a21.768 21.768 0 0 1 -17.678-34.472 1 1 0 0 1 1.34-.265l35.187 21.9a1 1 0 0 1 .354 1.32 21.745 21.745 0 0 1 -19.203 11.517zm-16.578-32.534a19.769 19.769 0 1 0 33.561 20.887z"/><path d="m16.1 72h-6.76a1 1 0 0 1 -.831-1.556l11.22-16.779a.925.925 0 0 1 .107-.134 1 1 0 0 1 1.524 1.292l-10.149 15.177h4.889a1 1 0 0 1 0 2z"/><path d="m39.76 72h-6.76a1 1 0 0 1 0-2h5.11l-5.717-10.958a1 1 0 1 1 1.774-.924l6.479 12.42a1 1 0 0 1 -.886 1.462z"/><path d="m26 72h-2.9a1 1 0 1 1 0-2h2.9a1 1 0 0 1 0 2z"/><path d="m33.762 37.473a1 1 0 0 1 -.8-1.591l3.362-4.591a1 1 0 1 1 1.613 1.182l-3.367 4.591a1 1 0 0 1 -.808.409z"/><path d="m39.016 33.424a4.565 4.565 0 1 1 4.565-4.565 4.571 4.571 0 0 1 -4.565 4.565zm0-7.13a2.565 2.565 0 1 0 2.565 2.565 2.568 2.568 0 0 0 -2.565-2.565z"/><path d="m64.664 28.249a1 1 0 0 1 -1-.9 25.79 25.79 0 0 0 -28.119-23.23 1 1 0 0 1 -.19-1.992 27.791 27.791 0 0 1 30.305 25.026 1 1 0 0 1 -.9 1.091c-.033.003-.065.005-.096.005z"/><path d="m56.544 29.023a1 1 0 0 1 -.995-.9 17.652 17.652 0 0 0 -19.229-15.885 1 1 0 1 1 -.19-1.991 19.656 19.656 0 0 1 21.411 17.681 1 1 0 0 1 -.9 1.091c-.034.003-.065.004-.097.004z"/><path d="m48.424 29.8a1 1 0 0 1 -.994-.9 9.49 9.49 0 0 0 -10.33-8.542 1 1 0 1 1 -.191-1.991 11.492 11.492 0 0 1 12.512 10.333 1 1 0 0 1 -.9 1.09c-.033.01-.065.01-.097.01z"/></svg>