<svg id="Layer_1" enable-background="new 0 0 512.039 512.039" height="512" viewBox="0 0 512.039 512.039" width="512" xmlns="http://www.w3.org/2000/svg"><g><g><path d="m437.058 74.972c-95.712-95.711-249.858-100.301-350.929-10.451-4.128 3.669-4.5 9.99-.83 14.118 3.668 4.126 9.99 4.5 14.117.83 93.17-82.824 235.267-78.586 323.5 9.646 92.017 92.016 92.017 241.738 0 333.754-44.574 44.575-103.839 69.123-166.877 69.123-63.037 0-122.303-24.548-166.877-69.123-73.133-73.132-90.271-183.89-42.646-275.605 2.545-4.901.635-10.938-4.267-13.483-4.903-2.545-10.938-.634-13.483 4.267-24.879 47.911-33.869 101.611-25.998 155.291 8.027 54.752 33.012 104.433 72.251 143.673 48.353 48.352 112.64 74.98 181.02 74.98 68.381 0 132.668-26.629 181.02-74.98 48.352-48.353 74.98-112.64 74.98-181.02s-26.629-132.667-74.981-181.02z"/><path d="m251.191 416.896c5.338 1.432 10.817-1.737 12.247-7.071 5.291-19.746-.401-40.99-14.855-55.443-10.842-10.842-25.256-16.813-40.588-16.813s-29.746 5.971-40.588 16.812c-22.38 22.38-22.38 58.795 0 81.175 10.883 10.884 25.615 16.8 40.661 16.8 4.935 0 9.905-.637 14.783-1.944 5.334-1.43 8.5-6.913 7.07-12.248-1.43-5.334-6.911-8.501-12.248-7.071-12.86 3.447-26.706-.262-36.124-9.68-14.582-14.582-14.582-38.309 0-52.891 7.063-7.064 16.456-10.954 26.445-10.954s19.382 3.89 26.445 10.955c9.418 9.417 13.127 23.259 9.68 36.125-1.429 5.336 1.737 10.819 7.072 12.248z"/><path d="m296.834 381.393c0 8.681 3.381 16.843 9.52 22.98 6.138 6.139 14.3 9.519 22.98 9.519s16.843-3.38 22.981-9.519 9.52-14.3 9.52-22.981c0-8.682-3.381-16.843-9.52-22.981s-14.301-9.519-22.981-9.519-16.843 3.381-22.98 9.519c-6.139 6.139-9.52 14.301-9.52 22.982zm23.662-8.839c2.36-2.361 5.499-3.661 8.838-3.661s6.478 1.3 8.839 3.662c2.361 2.361 3.661 5.5 3.661 8.839 0 3.338-1.3 6.478-3.661 8.838-2.36 2.361-5.5 3.661-8.839 3.661s-6.478-1.3-8.838-3.661c-2.361-2.361-3.661-5.5-3.661-8.838 0-3.339 1.299-6.479 3.661-8.84z"/><path d="m162.527 81.368c-12.671 12.671-12.671 33.29 0 45.962 6.336 6.335 14.658 9.503 22.981 9.503 8.322 0 16.646-3.168 22.981-9.504 12.671-12.671 12.671-33.29 0-45.961-12.671-12.672-33.29-12.672-45.962 0zm31.82 31.819c-4.873 4.874-12.805 4.873-17.678 0-4.874-4.874-4.874-12.804 0-17.678 2.437-2.437 5.638-3.656 8.839-3.656s6.402 1.219 8.839 3.656c4.874 4.875 4.874 12.805 0 17.678z"/><path d="m140.82 181.847c-11.697-11.696-30.729-11.696-42.428 0-11.696 11.697-11.696 30.729.001 42.427l7.07 7.07c-.667 4.689-.667 9.455 0 14.144l-7.071 7.07c-5.65 5.651-8.763 13.185-8.763 21.213.001 8.029 3.113 15.563 8.764 21.213 5.65 5.651 13.184 8.763 21.213 8.763 8.028 0 15.562-3.112 21.213-8.763l7.07-7.071c4.689.667 9.455.667 14.145 0l7.07 7.071c5.849 5.848 13.53 8.772 21.213 8.772 7.682 0 15.365-2.924 21.214-8.772 11.696-11.697 11.696-30.729-.001-42.426l-7.07-7.071c.667-4.689.667-9.455 0-14.144l7.07-7.07c11.697-11.697 11.697-30.729 0-42.427-11.698-11.697-30.73-11.695-42.427 0l-7.069 7.07c-4.689-.667-9.455-.667-14.145 0zm21.919 27.589c3.455.921 7.128-.067 9.651-2.59l10.855-10.855c3.897-3.898 10.242-3.9 14.142 0 1.873 1.873 2.905 4.384 2.905 7.071s-1.032 5.198-2.905 7.071l-10.855 10.855c-2.523 2.524-3.511 6.202-2.591 9.651 1.359 5.088 1.359 10.468.001 15.556-.921 3.449.066 7.126 2.59 9.65l10.855 10.856c1.874 1.873 2.905 4.384 2.905 7.071s-1.031 5.198-2.905 7.071c-1.873 1.874-4.384 2.905-7.07 2.905s-5.197-1.031-7.07-2.905l-10.856-10.856c-1.9-1.9-4.454-2.929-7.072-2.929-.859 0-1.727.111-2.579.339-5.088 1.358-10.467 1.358-15.555 0-3.452-.92-7.127.067-9.651 2.59l-10.856 10.856c-1.873 1.874-4.384 2.905-7.07 2.905s-5.198-1.032-7.071-2.905-2.905-4.384-2.905-7.07c0-2.687 1.032-5.198 2.905-7.071l10.856-10.856c2.523-2.524 3.511-6.202 2.591-9.651-1.359-5.088-1.359-10.468 0-15.556.92-3.449-.067-7.126-2.591-9.651l-10.855-10.855c-1.874-1.873-2.905-4.384-2.905-7.071s1.031-5.198 2.905-7.071c3.899-3.9 10.244-3.898 14.142 0l10.855 10.855c2.524 2.523 6.202 3.511 9.651 2.59 5.086-1.359 10.465-1.359 15.553 0z"/><path d="m106.042 337.191c-5.522 0-9.997 4.477-9.997 10s4.481 10 10.004 10 10-4.477 10-10-4.478-10-10-10z"/><path d="m299.249 156.791c5.522 0 10-4.477 10-10s-4.478-10-10-10h-.008c-5.522 0-9.996 4.477-9.996 10s4.481 10 10.004 10z"/><path d="m298.042 280.391c5.522 0 10-4.477 10-10s-4.478-10-10-10h-.008c-5.522 0-9.996 4.477-9.996 10s4.481 10 10.004 10z"/><path d="m403.641 205.192h-.007c-5.522 0-9.997 4.477-9.997 10s4.481 10 10.004 10 10-4.477 10-10-4.477-10-10-10z"/><path d="m404.438 326.791c0 5.523 4.481 10 10.004 10s10-4.477 10-10-4.478-10-10-10h-.008c-5.522 0-9.996 4.477-9.996 10z"/><path d="m61.963 114.786c5.522 0 10-4.477 10-10s-4.478-10-10-10h-.007c-5.522 0-9.996 4.477-9.996 10s4.48 10 10.003 10z"/></g></g></svg>