<?xml version="1.0" encoding="UTF-8"?>
<svg xmlns="http://www.w3.org/2000/svg" viewBox="0 0 74 74" width="512" height="512"><g id="Numbers"><text transform="translate(31.995 -17.877)" font-size="18" fill="red" font-family="ArialMT, Arial">5<tspan x="-5.005" y="124">15</tspan><tspan x="-5.005" y="248">25</tspan><tspan x="-5.005" y="372">35</tspan><tspan x="-5.005" y="496">45</tspan><tspan x="-5.005" y="620">55</tspan><tspan x="-5.005" y="744">65</tspan><tspan x="-5.005" y="868">75</tspan><tspan x="-5.005" y="992">85</tspan><tspan x="-5.005" y="1116">95</tspan><tspan x="-10.011" y="1240">105</tspan><tspan x="-9.343" y="1364" letter-spacing="-0.074em">1</tspan><tspan x="-0.668" y="1364">15</tspan><tspan x="-10.011" y="1488">125</tspan><tspan x="-10.011" y="1612">135</tspan><tspan x="-10.011" y="1736">145</tspan><tspan x="-10.011" y="1860">155</tspan><tspan x="-10.011" y="1984">165</tspan><tspan x="-10.011" y="2108">175</tspan><tspan x="-10.011" y="2232">185</tspan><tspan x="-10.011" y="2356">195</tspan><tspan x="-10.011" y="2480">205</tspan><tspan x="-10.011" y="2604">215</tspan><tspan x="-10.011" y="2728">225</tspan><tspan x="-10.011" y="2852">235</tspan><tspan x="-10.011" y="2976">245</tspan><tspan x="-10.011" y="3100">255</tspan><tspan x="-10.011" y="3224">265</tspan><tspan x="-10.011" y="3348">275</tspan><tspan x="-10.011" y="3472">285</tspan><tspan x="-10.011" y="3596">295</tspan></text></g><g id="Icons"><path d="M23.331,6.86a1,1,0,0,1-.4-1.916c.89-.391,1.823-.756,2.85-1.117a1,1,0,1,1,.663,1.886c-.979.345-1.865.692-2.709,1.062A.983.983,0,0,1,23.331,6.86Z"/><path d="M37,72A34.823,34.823,0,0,1,2.01,38.029C2,37.69,2,37.34,2,37a35.493,35.493,0,0,1,.741-7.2,34.475,34.475,0,0,1,6.332-13.89,1,1,0,1,1,1.594,1.208A32.5,32.5,0,0,0,4.7,30.2,33.425,33.425,0,0,0,4,37c0,.32,0,.65.009.97A33.006,33.006,0,0,0,62.624,57.8a33.342,33.342,0,0,0,3.728-5.7,33.078,33.078,0,0,0,0-30.2,33.355,33.355,0,0,0-3.727-5.7A32.909,32.909,0,0,0,37,4a32.508,32.508,0,0,0-3.658.2,1,1,0,0,1-.224-1.988A35.007,35.007,0,0,1,64.176,14.939a34.967,34.967,0,0,1,0,44.122A34.9,34.9,0,0,1,37,72Z"/><path d="M14.92,12.14a1,1,0,0,1-.644-1.765c.849-.713,1.628-1.321,2.384-1.859a1,1,0,1,1,1.16,1.629c-.712.507-1.45,1.083-2.257,1.761A1,1,0,0,1,14.92,12.14Z"/><path d="M63.4,16.57H45a1,1,0,0,1,0-2H63.4a1,1,0,1,1,0,2Z"/><path d="M67.24,22.44H40a1,1,0,0,1,0-2H67.24a1,1,0,0,1,0,2Z"/><path d="M63.4,59.43H50a1,1,0,0,1,0-2H63.4a1,1,0,1,1,0,2Z"/><path d="M67.24,53.56H45a1,1,0,0,1,0-2H67.24a1,1,0,0,1,0,2Z"/><path d="M16.62,31H3.72a1,1,0,1,1,0-2h12.9a1,1,0,1,1,0,2Z"/><path d="M20.62,39H3.01a1,1,0,1,1,0-2H20.62a1,1,0,1,1,0,2Z"/><path d="M26.375,39H25a1,1,0,0,1,0-2h1.375a1,1,0,0,1,0,2Z"/><path d="M27,21H23.5a1,1,0,0,1,0-2H27a1,1,0,0,1,0,2Z"/><path d="M32,58H25.25a1,1,0,0,1,0-2H32a1,1,0,0,1,0,2Z"/><path d="M41,47H37a1,1,0,0,1,0-2h4a1,1,0,0,1,0,2Z"/><path d="M53,37H49a1,1,0,0,1,0-2h4a1,1,0,0,1,0,2Z"/></g></svg>
