<?xml version="1.0" encoding="iso-8859-1"?>
<!-- Generator: Adobe Illustrator 19.0.0, SVG Export Plug-In . SVG Version: 6.00 Build 0)  -->
<svg version="1.1" id="Capa_1" xmlns="http://www.w3.org/2000/svg" xmlns:xlink="http://www.w3.org/1999/xlink" x="0px" y="0px"
	 viewBox="0 0 512 512" style="enable-background:new 0 0 512 512;" xml:space="preserve">
<g>
	<g>
		<path d="M227.159,101.14c-5.522,0-10,4.477-10,10s4.478,10,10,10c9.06,0,16.43,7.37,16.43,16.43s-7.37,16.43-16.43,16.43
			s-16.43-7.37-16.43-16.43c0-5.523-4.478-10-10-10c-5.522,0-10,4.477-10,10c0,20.088,16.342,36.43,36.43,36.43
			s36.43-16.342,36.43-36.43S247.247,101.14,227.159,101.14z"/>
	</g>
</g>
<g>
	<g>
		<path d="M234.229,224.93c-1.859-1.86-4.439-2.93-7.069-2.93c-2.631,0-5.21,1.07-7.07,2.93c-1.86,1.86-2.93,4.44-2.93,7.07
			s1.069,5.21,2.93,7.07c1.861,1.86,4.439,2.93,7.07,2.93c2.63,0,5.21-1.07,7.069-2.93c1.86-1.86,2.931-4.44,2.931-7.07
			S236.091,226.79,234.229,224.93z"/>
	</g>
</g>
<g>
	<g>
		<path d="M119.154,393.512l-0.333-0.333c-3.906-3.904-10.236-3.904-14.143,0c-3.905,3.905-3.905,10.237,0,14.143l0.334,0.333
			c1.953,1.952,4.512,2.929,7.071,2.929s5.118-0.977,7.071-2.929C123.06,403.75,123.06,397.418,119.154,393.512z"/>
	</g>
</g>
<g>
	<g>
		<path d="M509.07,35.91l-32.98-32.981C474.214,1.054,471.672,0,469.02,0s-5.195,1.054-7.071,2.929l-32.98,32.981
			c-3.905,3.905-3.905,10.237,0,14.142l32.979,32.981c1.876,1.875,4.419,2.929,7.071,2.929c2.652,0,5.195-1.054,7.071-2.929
			l32.981-32.981c1.875-1.875,2.929-4.419,2.929-7.071C512,40.329,510.945,37.785,509.07,35.91z M469.02,61.82L450.18,42.981
			l18.839-18.839l18.839,18.839L469.02,61.82z"/>
	</g>
</g>
<g>
	<g>
		<path d="M83.032,461.947l-32.979-32.98c-3.904-3.903-10.234-3.905-14.143,0L2.93,461.947C1.055,463.822,0,466.366,0,469.019
			s1.054,5.195,2.929,7.071l32.981,32.981c1.876,1.875,4.419,2.929,7.071,2.929c2.652,0,5.196-1.054,7.071-2.929l32.98-32.981
			C86.938,472.185,86.938,465.853,83.032,461.947z M42.982,487.857l-18.839-18.839l18.839-18.839l18.839,18.839L42.982,487.857z"/>
	</g>
</g>
<g>
	<g>
		<path d="M494.359,327.405c-6.64-16.969-15.126-34.573-25.205-52.368C469.706,268.742,470,262.394,470,256
			c0-57.162-22.26-110.902-62.679-151.321C366.901,64.26,313.161,42,256,42c-6.395,0-12.743,0.294-19.037,0.845
			c-17.798-10.08-35.403-18.566-52.367-25.203C116.613-8.958,60.92-5.36,27.777,27.778C-5.359,60.917-8.958,116.609,17.643,184.596
			c6.709,17.146,15.181,34.708,25.208,52.405c-4.035,45.649,6.794,91.993,30.654,130.853c1.888,3.074,5.17,4.769,8.531,4.769
			c1.784,0,3.591-0.478,5.223-1.479c4.706-2.89,6.18-9.047,3.289-13.754c-16.393-26.699-25.994-57.306-28.089-88.587
			c22.473,33.75,50.16,67.385,81.757,98.983c31.6,31.598,65.236,59.285,98.987,81.759c-31.732-2.129-62.774-11.989-89.722-28.792
			c-4.688-2.922-10.854-1.491-13.776,3.194c-2.923,4.687-1.492,10.854,3.194,13.776c33.802,21.077,73.424,32.264,113.36,32.264
			c6.246,0,12.503-0.283,18.744-0.835c17.696,10.027,35.257,18.499,52.403,25.207C357.323,506.064,384.945,512,409.507,512
			c31.146,0,56.283-9.346,74.717-27.777C517.361,451.083,520.96,395.391,494.359,327.405z M403.294,143.141
			c0,18.748-15.252,34-34,34s-34-15.252-34-34s15.252-34,34-34S403.294,124.393,403.294,143.141z M357.255,90.51
			c-23.998,5.487-41.962,26.993-41.962,52.631c0,29.776,24.225,54,54,54c25.564,0,47.021-17.863,52.583-41.759
			c45.258,74.619,35.702,173.397-28.698,237.797c-10.052,10.053-21.167,18.959-33.046,26.533c-7.404-2.235-15.22-5.106-23.396-8.633
			c-37.489-16.169-78.507-43.957-117.582-79.431c0.017-0.236,0.036-0.471,0.036-0.71c0-20.367,16.569-36.937,36.937-36.937
			s36.937,16.569,36.937,36.937c0,5.522,4.478,10,10,10c5.522,0,10-4.478,10-10c0-31.395-25.542-56.937-56.937-56.937
			c-25.844,0-47.708,17.315-54.636,40.949c-1.236-1.216-2.472-2.436-3.702-3.667c-45.207-45.206-80.648-94.552-99.797-138.947
			c-2.736-6.343-5.082-12.472-7.041-18.358c7.321-11.818,15.971-22.884,25.735-32.957c22.433,6.929,35.992,30.245,30.473,53.408
			c-2.037,8.547-6.471,16.239-12.822,22.243c-4.014,3.794-4.191,10.123-0.397,14.137c1.967,2.081,4.614,3.13,7.269,3.13
			c2.465,0,4.935-0.906,6.867-2.733c9.188-8.685,15.598-19.799,18.539-32.141c7.088-29.752-7.615-59.678-33.743-72.982
			C197.167,53.196,287.789,48.007,357.255,90.51z M424.697,415.251c-8.049,8.049-21.023,11.331-37.639,9.921
			c7.098-5.513,13.88-11.468,20.264-17.851c10.155-10.155,19.161-21.152,26.958-32.832
			C436.388,392.688,433.164,406.785,424.697,415.251z M84.57,127.888c-2.776-19.444,0.275-34.539,9.249-43.513
			c9.404-9.406,25.694-12.342,46.846-8.709c-12.856,8.258-24.923,17.95-35.986,29.014C97.417,111.944,90.698,119.711,84.57,127.888z
			 M470.081,470.08C455.534,484.625,435.154,492,409.507,492c-22.057,0-47.228-5.473-74.814-16.267
			c-57.461-22.483-120.085-65.843-176.334-122.091C102.109,297.394,58.75,234.77,36.268,177.309
			C12.74,117.177,14.747,69.095,41.919,41.921c27.177-27.174,75.261-29.182,135.39-5.654c8.852,3.463,17.905,7.473,27.083,11.969
			c-13.045,3.215-25.71,7.658-37.864,13.257c-38.858-12.237-68.891-9.219-86.851,8.739c-21.402,21.403-21.42,60.477-0.049,110.024
			c20.126,46.662,57.067,98.217,104.019,145.169c46.952,46.951,98.507,83.893,145.169,104.019
			c24.755,10.677,46.893,16.016,65.521,16.015c18.656,0,33.792-5.355,44.502-16.064c17.064-17.064,20.637-45.098,10.416-81.235
			c6.196-12.969,11.057-26.542,14.509-40.55c4.497,9.177,8.506,18.23,11.97,27.083C499.261,394.823,497.253,442.905,470.081,470.08z
			"/>
	</g>
</g>
<g>
	<g>
		<path d="M416.071,246c-5.522,0-10,4.477-10,10c0,27.955-7.725,55.218-22.339,78.845c-2.906,4.698-1.453,10.861,3.244,13.766
			c1.64,1.014,3.456,1.496,5.251,1.496c3.35,0,6.623-1.683,8.515-4.74c16.57-26.791,25.329-57.693,25.329-89.367
			C426.071,250.477,421.593,246,416.071,246z"/>
	</g>
</g>
<g>
	<g>
		<path d="M376.799,362.658c-3.596-4.193-9.907-4.68-14.101-1.085c-0.389,0.333-0.771,0.716-1.104,1.104
			c-3.594,4.195-3.109,10.508,1.085,14.102c1.886,1.616,4.2,2.407,6.503,2.407c2.583,0,5.151-0.995,7.085-2.938
			C379.944,372.591,380.229,366.659,376.799,362.658z"/>
	</g>
</g>
<g>
</g>
<g>
</g>
<g>
</g>
<g>
</g>
<g>
</g>
<g>
</g>
<g>
</g>
<g>
</g>
<g>
</g>
<g>
</g>
<g>
</g>
<g>
</g>
<g>
</g>
<g>
</g>
<g>
</g>
</svg>
