<svg id="Capa_1" enable-background="new 0 0 510.726 510.726" height="512" viewBox="0 0 510.726 510.726" width="512" xmlns="http://www.w3.org/2000/svg"><g><path d="m498.993 11.785c-15.118-15.119-40.938-15.688-76.739-1.693-21.84 8.541-47.088 22.265-75.125 40.815-28.872-12.941-59.687-19.515-91.742-19.515-6.2 0-12.46.256-18.604.76-52.979 4.339-102.91 27.51-140.597 65.246-37.689 37.739-60.795 87.708-65.06 140.688-.49 6.025-.739 12.184-.739 18.307 0 32.182 6.623 63.104 19.656 92.055-18.097 27.488-31.532 52.293-39.957 73.814-13.993 35.801-13.424 61.619 1.694 76.737 8.235 8.236 19.251 11.724 32.013 11.724 33.623-.003 79.337-24.228 118.054-49.657 29.376 13.48 60.794 20.327 93.539 20.327 60.1 0 116.603-23.404 159.1-65.901 42.496-42.497 65.9-99 65.9-159.099 0-32.62-6.8-63.933-20.186-93.225 35.587-53.903 68.926-121.249 38.793-151.383zm-437.966 228.72c7.693-95.577 82.639-170.627 178.206-178.454 5.334-.438 10.769-.66 16.153-.66 30.359 0 59.426 6.773 86.396 20.134 10.343 5.119 20.235 11.166 29.521 18.04-17.543 38.793-62.286 96.502-119.873 154.122-57.656 57.688-114.903 101.918-152.927 118.54-6.802-9.197-12.787-18.976-17.856-29.185-13.444-27.032-20.261-56.185-20.261-86.65.001-5.315.217-10.655.641-15.887zm-17.061 240.386c-5.39 0-9.033-1.167-10.973-3.106-4.112-4.113-5.262-18.262 5.031-44.596 6.187-15.805 15.872-34.419 28.387-54.645 4.774 7.372 9.98 14.476 15.592 21.253l6.569 7.932 9.762-3.28c89.711-30.144 272.283-212.373 305.239-304.664l3.528-9.88-8.069-6.703c-6.936-5.761-14.223-11.095-21.796-15.98 20.748-12.918 39.812-22.883 55.941-29.19 26.343-10.296 40.489-9.146 44.603-5.034 8.266 8.266 2.515 47.18-47.208 120.503-32.399 47.768-76.243 99.735-126.792 150.284-51.024 51.024-103.424 95.159-151.535 127.633-55.367 37.369-90.909 49.475-108.279 49.473zm211.421-29.499c-22.158 0-43.606-3.622-64.054-10.754 43.292-31.47 89.047-71.025 133.66-115.639 44.155-44.155 83.396-89.477 114.727-132.403 7.074 20.374 10.667 41.735 10.667 63.796 0 107.523-87.477 195-195 195z"/><path d="m104.387 226.392h30v30h-30z"/><path d="m164.387 196.392h30v30h-30z"/><path d="m343.387 346.392h30v30h-30z"/></g></svg>