<svg id="Layer_1" enable-background="new 0 0 512.06 512.06" height="512" viewBox="0 0 512.06 512.06" width="512" xmlns="http://www.w3.org/2000/svg"><g><g><path d="m507.447 326.602c-.117-.176-.239-.349-.367-.518l-17.478-23.078c1.57-4.283 2.427-8.907 2.427-13.727 0-22.056-17.944-40.001-40-40.001-1.018 0-2.025.051-3.024.126l-20.319-26.829c-4.869-8.057-13.573-13.081-22.985-13.279-2.417-36.785-18.068-70.997-44.535-97.006-19.998-19.653-44.575-33.04-71.276-39.18.749-2.868 1.14-5.836 1.14-8.832 0-19.299-15.701-35-35-35s-35 15.701-35 35c0 2.996.391 5.964 1.14 8.832-26.702 6.14-51.278 19.527-71.276 39.18-26.467 26.009-42.118 60.221-44.535 97.006-9.411.198-18.115 5.221-22.985 13.278l-20.319 26.829c-.999-.075-2.006-.126-3.024-.126-22.056 0-40 17.944-40 40.001 0 4.82.857 9.444 2.427 13.727l-17.478 23.079c-.128.168-.25.341-.367.518-5.667 8.561-6.141 19.083-1.266 28.147 4.821 8.965 14.076 14.531 24.151 14.53h.023 84.434c38.932 37.397 90.072 57.99 144.074 57.99s105.143-20.593 144.074-57.99h84.425.023c10.083 0 19.339-5.566 24.16-14.53 4.877-9.064 4.404-19.587-1.264-28.147zm-35.417-37.322c0 11.028-8.972 20-20 20s-20-8.972-20-20 8.972-20 20-20 20 8.971 20 20zm-86.396-80.001h-81.208l40.51-40.509c3.905-3.905 3.905-10.237 0-14.143-3.906-3.905-10.237-3.904-14.143 0l-54.652 54.652h-31.339l91.751-91.751c27.582 21.918 46.214 54.733 49.081 91.751zm-144.604-144.999c0-8.271 6.729-15 15-15s15 6.729 15 15c0 1.945-.394 3.857-1.117 5.638-4.59-.42-9.22-.639-13.883-.639s-9.293.22-13.883.639c-.723-1.781-1.117-3.693-1.117-5.638zm9.94 25.108-21.578 21.577c-3.905 3.905-3.905 10.237 0 14.143 1.953 1.953 4.512 2.929 7.071 2.929s5.119-.977 7.071-2.929l34.013-34.013c15.044 2.551 29.254 7.719 42.126 15.026l-103.157 103.158h-57.152l20.531-20.532c3.905-3.905 3.905-10.237 0-14.142s-10.237-3.905-14.143 0l-34.673 34.674h-4.654c5.05-65.174 58.968-117.326 124.545-119.891zm-190.939 179.891c11.028 0 20 8.972 20 20s-8.972 20-20 20-20-8.972-20-20 8.972-20 20-20zm195.999 137.99c-41.35 0-80.846-13.356-113.347-37.99h226.694c-32.501 24.634-71.997 37.99-113.347 37.99zm235.068-61.993c-.505.939-2.469 4.003-6.553 4.003-.002 0-.004 0-.007 0h-457.025c-.002 0-.004 0-.007 0-4.075 0-6.04-3.064-6.544-4.003-.624-1.159-1.827-4.165.19-7.418l13.434-17.738c6.919 5.719 15.788 9.159 25.445 9.159 22.056 0 40-17.944 40-40 0-13.591-6.819-25.614-17.21-32.846l16.849-22.247c.264-.349.505-.714.721-1.095 1.337-2.352 3.844-3.813 6.541-3.813h298.196c2.697 0 5.204 1.461 6.541 3.813.216.38.457.746.721 1.095l16.849 22.247c-10.391 7.232-17.21 19.255-17.21 32.846 0 22.056 17.944 40 40 40 9.657 0 18.526-3.44 25.445-9.159l13.434 17.738c2.017 3.253.814 6.26.19 7.418z"/><path d="m256.031 249.279c-22.056 0-40.001 17.944-40.001 40.001s17.944 40 40.001 40c22.056 0 40-17.944 40-40s-17.945-40.001-40-40.001zm0 60.001c-11.028 0-20.001-8.972-20.001-20s8.972-20 20.001-20c11.028 0 20 8.972 20 20-.001 11.027-8.973 20-20 20z"/><path d="m256.03 447.271c-5.523 0-10 4.477-10 10v15.509c0 5.523 4.477 10 10 10s10-4.477 10-10v-15.509c0-5.523-4.477-10-10-10z"/><path d="m197.022 439.502c-5.336-1.43-10.818 1.736-12.248 7.071l-4.014 14.981c-1.43 5.335 1.736 10.818 7.071 12.248.867.232 1.738.343 2.595.343 4.415 0 8.456-2.947 9.653-7.414l4.014-14.981c1.429-5.335-1.737-10.819-7.071-12.248z"/><path d="m142.035 416.725c-4.782-2.76-10.898-1.122-13.66 3.66l-7.755 13.432c-2.762 4.783-1.123 10.899 3.66 13.66 1.575.909 3.294 1.342 4.991 1.342 3.456 0 6.817-1.794 8.669-5.002l7.755-13.432c2.761-4.782 1.123-10.898-3.66-13.66z"/><path d="m327.286 446.573c-1.43-5.334-6.913-8.503-12.248-7.071-5.334 1.429-8.5 6.913-7.071 12.248l4.014 14.981c1.197 4.468 5.237 7.414 9.653 7.414.856 0 1.728-.111 2.595-.343 5.334-1.429 8.5-6.913 7.071-12.248z"/><path d="m383.686 420.386c-2.762-4.783-8.878-6.423-13.66-3.66-4.783 2.761-6.422 8.877-3.66 13.66l7.755 13.432c1.852 3.208 5.213 5.002 8.669 5.002 1.696 0 3.416-.433 4.991-1.342 4.783-2.761 6.422-8.877 3.66-13.66z"/><path d="m158.034 279.28h-.007c-5.523 0-9.997 4.477-9.997 10s4.481 10 10.004 10 10-4.477 10-10-4.477-10-10-10z"/><path d="m354.034 279.28h-.007c-5.523 0-9.997 4.477-9.997 10s4.481 10 10.004 10 10-4.477 10-10-4.478-10-10-10z"/><path d="m204.646 159.855c5.523 0 10-4.477 10-10s-4.477-10-10-10h-.007c-5.523 0-9.996 4.477-9.996 10s4.48 10 10.003 10z"/></g></g></svg>